<?xml version="1.0" standalone="no"?>
<!DOCTYPE svg PUBLIC "-//W3C//DTD SVG 20010904//EN"
 "http://www.w3.org/TR/2001/REC-SVG-20010904/DTD/svg10.dtd">
<svg version="1.0" xmlns="http://www.w3.org/2000/svg"
 width="512.000000pt" height="512.000000pt" viewBox="0 0 512.000000 512.000000"
 preserveAspectRatio="xMidYMid meet">
<metadata>
Created by potrace 1.16, written by Peter Selinger 2001-2019
</metadata>
<g transform="translate(0.000000,512.000000) scale(0.100000,-0.100000)"
fill="#000000" stroke="none">
<path d="M2226 5104 c-679 -87 -1308 -456 -1721 -1009 -273 -366 -446 -801
-494 -1247 -14 -125 -14 -451 0 -576 118 -1090 949 -2004 2021 -2223 252 -51
596 -65 848 -34 1159 143 2082 1066 2225 2225 20 163 20 478 0 640 -96 774
-540 1461 -1211 1872 -301 185 -656 309 -1014 353 -155 19 -502 18 -654 -1z
m504 -158 c449 -20 943 -215 1330 -524 484 -388 809 -978 880 -1597 15 -135
12 -426 -5 -562 -35 -267 -113 -522 -230 -758 -366 -738 -1066 -1229 -1890
-1326 -109 -13 -399 -12 -515 1 -536 60 -1048 308 -1430 690 -381 380 -629
893 -690 1425 -13 116 -13 414 0 530 30 262 115 549 235 790 350 708 1007
1187 1800 1315 74 12 320 28 370 23 17 -1 82 -4 145 -7z"/>
<path d="M1475 3580 c-95 -25 -138 -44 -217 -96 -127 -85 -223 -213 -277 -372
l-25 -77 -4 -430 c-3 -298 0 -453 8 -505 43 -271 239 -490 510 -567 61 -17
126 -18 1095 -18 l1030 0 80 27 c212 73 368 222 448 430 l32 83 3 470 c3 531
1 555 -68 693 -72 141 -175 244 -315 312 -149 73 -94 70 -1220 69 -953 0
-1014 -1 -1080 -19z m2126 -166 c186 -55 319 -190 374 -376 14 -49 16 -114 13
-505 -3 -438 -4 -449 -25 -503 -69 -169 -221 -299 -390 -335 -56 -12 -232 -15
-1019 -15 -915 0 -954 1 -1028 20 -177 45 -307 161 -374 336 l-27 69 -3 409
c-2 281 0 431 8 479 33 190 189 365 373 418 57 16 136 18 1053 18 883 1 996
-1 1045 -15z"/>
<path d="M1779 3181 l-24 -19 -3 -597 -2 -596 29 -30 29 -29 262 0 c314 0 330
4 330 91 0 18 -10 39 -25 54 -24 25 -24 25 -240 25 l-215 0 0 195 0 195 205 0
c253 0 275 7 275 91 0 18 -10 39 -25 54 -24 25 -24 25 -240 25 l-215 0 0 195
0 195 205 0 c255 0 275 7 275 94 0 21 -8 40 -23 54 -23 21 -30 22 -299 22
-257 0 -277 -1 -299 -19z"/>
<path d="M2659 3181 l-24 -19 -3 -597 -2 -596 30 -31 c27 -26 36 -30 68 -25
74 12 72 1 73 446 l0 396 204 -407 c143 -285 212 -412 230 -424 17 -11 35 -14
60 -10 68 13 65 -14 65 646 l0 597 -23 21 c-23 22 -68 29 -102 16 -42 -17 -45
-44 -46 -441 l0 -378 -196 390 c-107 215 -204 400 -216 413 -26 28 -85 30
-118 3z"/>
</g>
</svg>
