<?xml version="1.0" standalone="no"?>
<!DOCTYPE svg PUBLIC "-//W3C//DTD SVG 20010904//EN"
 "http://www.w3.org/TR/2001/REC-SVG-20010904/DTD/svg10.dtd">
<svg version="1.0" xmlns="http://www.w3.org/2000/svg"
 width="512.000000pt" height="512.000000pt" viewBox="0 0 512.000000 512.000000"
 preserveAspectRatio="xMidYMid meet">
<metadata>
Created by potrace 1.16, written by Peter Selinger 2001-2019
</metadata>
<g transform="translate(0.000000,512.000000) scale(0.100000,-0.100000)"
fill="#000000" stroke="none">
<path d="M1350 5105 c-350 -60 -641 -209 -884 -451 -246 -246 -393 -538 -452
-894 -20 -125 -20 -2275 0 -2400 59 -356 206 -648 452 -894 246 -246 538 -393
894 -452 125 -20 2275 -20 2400 0 356 59 648 206 894 452 246 246 393 538 452
894 20 125 20 2275 0 2400 -59 356 -206 648 -452 894 -246 246 -538 393 -894
452 -119 19 -2295 18 -2410 -1z m2394 -494 c316 -71 569 -254 736 -531 60
-101 103 -211 132 -343 l23 -102 0 -1075 0 -1075 -23 -102 c-99 -449 -425
-776 -873 -875 l-104 -23 -1075 0 -1075 0 -102 23 c-449 99 -776 425 -875 873
l-23 104 0 1075 0 1075 23 102 c29 132 72 242 132 343 193 321 507 518 875
550 50 4 549 7 1110 6 1015 -2 1021 -3 1119 -25z"/>
<path d="M3865 4096 c-101 -44 -136 -180 -68 -264 109 -134 313 -64 313 106 0
120 -134 207 -245 158z"/>
<path d="M2333 3825 c-177 -33 -387 -122 -528 -225 -264 -193 -453 -496 -510
-817 -19 -114 -19 -332 0 -446 46 -258 178 -509 367 -694 183 -180 424 -304
675 -348 114 -19 332 -19 446 0 528 93 949 514 1042 1042 19 114 19 332 0 446
-93 528 -514 949 -1042 1042 -107 18 -348 18 -450 0z m400 -491 c230 -51 440
-221 543 -439 54 -115 74 -207 74 -338 0 -581 -609 -961 -1135 -708 -271 129
-445 407 -445 708 0 131 20 223 74 338 101 215 302 380 529 436 94 23 264 24
360 3z"/>
</g>
</svg>
