<?xml version="1.0" standalone="no"?>
<!DOCTYPE svg PUBLIC "-//W3C//DTD SVG 20010904//EN"
 "http://www.w3.org/TR/2001/REC-SVG-20010904/DTD/svg10.dtd">
<svg version="1.0" xmlns="http://www.w3.org/2000/svg"
 width="512.000000pt" height="513.000000pt" viewBox="0 0 512.000000 513.000000"
 preserveAspectRatio="xMidYMid meet">
<metadata>
Created by potrace 1.16, written by Peter Selinger 2001-2019
</metadata>
<g transform="translate(0.000000,513.000000) scale(0.100000,-0.100000)"
fill="#000000" stroke="none">
<path d="M2295 5124 c-11 -3 -56 -12 -100 -20 -174 -34 -407 -126 -563 -222
-366 -227 -636 -562 -770 -957 -145 -425 -129 -860 51 -1390 197 -579 625
-1297 1198 -2006 148 -184 354 -422 419 -484 l41 -40 67 70 c179 188 505 586
703 860 590 815 928 1522 1016 2124 22 152 22 410 -1 551 -109 681 -572 1227
-1226 1444 -194 64 -227 69 -535 72 -154 1 -289 0 -300 -2z m400 -294 c122
-11 235 -33 335 -66 384 -128 711 -412 885 -769 173 -355 198 -705 81 -1160
-104 -408 -370 -943 -734 -1475 -201 -295 -664 -890 -692 -890 -9 0 -155 174
-287 340 -594 754 -1001 1480 -1143 2040 -51 202 -65 309 -64 500 0 190 18
302 71 459 191 564 697 967 1283 1020 120 11 152 12 265 1z"/>
<path d="M2350 4534 c-209 -38 -421 -141 -582 -282 -348 -305 -492 -777 -373
-1228 117 -446 474 -782 935 -881 118 -25 362 -25 480 0 404 87 720 346 879
720 170 399 110 872 -154 1217 -65 84 -200 209 -295 272 -137 91 -295 154
-458 183 -107 18 -328 18 -432 -1z m412 -309 c337 -70 604 -334 694 -685 27
-108 25 -315 -4 -423 -74 -271 -263 -497 -507 -608 -211 -96 -470 -105 -690
-25 -220 80 -429 279 -520 495 -56 132 -70 209 -69 366 1 167 20 251 89 390
161 324 502 529 850 509 50 -3 121 -11 157 -19z"/>
</g>
</svg>
