<?xml version="1.0" standalone="no"?>
<!DOCTYPE svg PUBLIC "-//W3C//DTD SVG 20010904//EN"
 "http://www.w3.org/TR/2001/REC-SVG-20010904/DTD/svg10.dtd">
<svg version="1.0" xmlns="http://www.w3.org/2000/svg"
 width="840.000000pt" height="460.000000pt" viewBox="0 0 840.000000 460.000000"
 preserveAspectRatio="xMidYMid meet">
<metadata>
Created by potrace 1.16, written by Peter Selinger 2001-2019
</metadata>
<g transform="translate(0.000000,460.000000) scale(0.100000,-0.100000)"
fill="#000000" stroke="none">
<path d="M0 2300 l0 -2300 4200 0 4200 0 0 2300 0 2300 -4200 0 -4200 0 0
-2300z m3067 1695 c177 -37 299 -100 409 -210 94 -94 142 -181 175 -315 l21
-85 123 -1 123 -1 6 44 c10 73 62 157 144 233 171 158 362 196 480 95 l42 -36
45 31 c134 92 243 108 357 52 36 -18 69 -32 73 -32 4 0 20 11 36 24 83 70 247
91 362 46 110 -42 204 -165 229 -299 9 -49 15 -61 27 -57 9 3 48 16 86 30 132
46 310 56 445 24 64 -15 165 -62 208 -97 38 -29 38 -29 62 -10 14 10 54 31 90
46 77 32 90 41 90 60 0 32 52 121 97 167 89 90 228 136 346 116 218 -38 360
-216 327 -410 -7 -43 -22 -86 -41 -115 l-29 -46 20 -59 c26 -78 26 -178 0
-258 l-20 -61 55 -52 c104 -99 145 -238 116 -391 -24 -119 -114 -250 -221
-318 -28 -18 -50 -35 -50 -38 0 -3 11 -33 24 -66 39 -97 51 -176 37 -244 -10
-53 -9 -64 9 -106 70 -158 34 -353 -89 -489 -88 -95 -236 -156 -381 -157 -25
0 -65 -7 -90 -16 -25 -9 -76 -16 -114 -16 -59 0 -79 5 -141 36 l-71 37 -66
-31 c-100 -47 -222 -66 -323 -52 -95 14 -148 33 -232 83 l-61 37 -38 -39 c-43
-44 -130 -93 -195 -109 -37 -9 -53 -21 -84 -61 -55 -72 -184 -189 -256 -231
-81 -48 -156 -65 -228 -50 -57 12 -130 54 -173 99 -39 41 -78 125 -85 183 -3
27 -7 50 -9 50 -2 0 -39 -10 -81 -21 -139 -38 -313 -25 -425 32 -39 20 -39 20
-68 -1 -76 -54 -232 -100 -338 -100 -41 0 -133 17 -197 35 -17 5 -25 -4 -47
-52 -36 -78 -104 -161 -185 -228 -380 -314 -1038 -210 -1241 196 -56 112 -72
182 -73 310 -2 168 43 286 149 401 l59 63 -28 60 c-15 33 -33 90 -40 128 -11
60 -15 68 -38 73 -14 3 -46 12 -71 20 -44 14 -47 14 -105 -16 -70 -35 -139
-48 -210 -39 -27 4 -94 5 -147 2 -61 -4 -119 -1 -156 7 -55 11 -62 11 -103
-11 -34 -18 -61 -23 -119 -23 -90 -1 -153 27 -216 96 -60 65 -78 120 -71 218
l5 79 -28 6 c-45 10 -143 78 -182 126 -189 233 -120 586 140 710 93 45 188 62
311 56 l103 -5 44 33 c60 46 105 59 180 52 78 -8 140 -36 193 -90 43 -43 81
-126 81 -178 0 -16 12 -58 27 -92 26 -60 29 -63 86 -86 l59 -23 61 28 c43 19
86 29 142 33 l80 6 -41 26 c-121 79 -213 227 -245 397 -24 128 3 329 61 442
103 202 340 362 592 399 40 6 84 13 98 15 45 8 248 -4 317 -19z"/>
<path d="M2714 3780 c-62 -9 -173 -44 -225 -71 -61 -31 -153 -113 -191 -171
-56 -84 -73 -147 -72 -263 1 -89 4 -107 31 -166 47 -103 120 -174 183 -179 62
-5 83 1 116 34 47 47 46 84 -6 156 -84 117 -95 140 -95 207 0 54 4 67 31 100
64 80 155 123 302 144 150 21 307 -31 368 -123 57 -84 53 -187 -7 -248 -56
-56 -104 -74 -199 -74 l-85 -1 -3 45 c-2 25 4 80 14 123 17 76 17 78 -2 104
-27 36 -64 45 -153 38 -108 -9 -171 -46 -171 -102 0 -10 16 -36 35 -58 19 -22
39 -56 45 -75 5 -19 14 -145 20 -280 13 -296 8 -336 -51 -427 -37 -56 -41 -67
-33 -96 11 -37 64 -77 104 -77 84 0 299 233 317 344 7 44 -20 79 -73 96 -31
11 -34 15 -34 53 0 23 -3 66 -6 95 l-7 52 29 0 c29 0 31 -3 78 -142 94 -282
208 -482 356 -628 144 -142 267 -199 449 -208 122 -6 188 7 286 53 131 63 194
139 195 236 0 52 -23 90 -70 114 -46 24 -82 18 -185 -30 -119 -55 -184 -75
-246 -75 -65 0 -156 30 -222 74 -138 91 -299 320 -383 542 l-23 61 69 22 c49
15 83 35 120 68 93 84 121 147 121 275 0 192 -81 317 -262 403 -122 58 -301
79 -465 55z"/>
<path d="M5247 3622 c-86 -58 -97 -179 -23 -259 58 -64 164 -56 215 15 46 66
34 167 -29 227 -39 37 -120 46 -163 17z"/>
<path d="M4784 3579 c-88 -55 -144 -120 -144 -167 0 -32 38 -72 69 -72 l28 0
7 -87 c15 -212 28 -547 22 -577 -4 -19 -22 -53 -41 -77 -41 -52 -44 -81 -10
-114 23 -24 30 -25 145 -25 142 0 203 13 230 48 32 40 25 62 -39 122 l-59 55
-21 380 c-12 209 -27 406 -35 437 -27 115 -63 133 -152 77z"/>
<path d="M4322 3568 c-57 -28 -142 -105 -158 -145 -10 -22 -11 -40 -4 -57 11
-30 52 -59 72 -51 19 8 23 -33 40 -403 l12 -272 -42 -60 c-46 -64 -48 -92 -12
-125 16 -14 41 -17 160 -16 151 2 199 13 219 49 20 37 12 56 -48 117 l-58 60
-18 350 c-18 370 -32 485 -62 538 -23 39 -45 43 -101 15z"/>
<path d="M7000 3571 c-74 -39 -98 -117 -65 -210 17 -49 20 -47 -78 -56 -74 -6
-163 -36 -215 -70 -90 -61 -127 -184 -83 -280 17 -39 91 -115 111 -115 21 0 9
-18 -31 -45 -58 -41 -93 -104 -84 -154 16 -98 113 -127 341 -100 156 19 224
-4 224 -74 -1 -57 -69 -109 -161 -122 -62 -9 -100 9 -189 89 -64 58 -79 66
-113 66 -118 0 -164 -123 -77 -210 85 -85 313 -112 490 -58 183 56 290 163
290 288 -1 148 -124 218 -338 192 -117 -15 -136 -15 -184 -2 -76 22 -54 66 50
98 37 11 92 28 123 37 119 36 192 103 205 191 10 71 -8 112 -96 213 -44 51
-80 101 -80 112 0 22 26 25 64 7 36 -16 98 4 126 40 38 48 8 126 -63 164 -43
23 -123 23 -167 -1z m-12 -444 c20 -20 27 -37 27 -66 0 -69 -56 -104 -164
-104 -47 0 -58 4 -78 27 -25 29 -31 83 -12 118 32 60 176 76 227 25z"/>
<path d="M6082 3284 c-28 -14 -69 -46 -91 -70 -21 -24 -41 -44 -45 -44 -3 0
-6 13 -6 29 0 42 -16 78 -40 91 -56 30 -250 -129 -250 -205 0 -28 55 -75 88
-75 l30 0 7 -133 c8 -155 -1 -191 -59 -229 -64 -40 -58 -106 12 -135 76 -32
313 5 352 54 24 30 17 47 -38 95 -70 60 -77 79 -77 203 0 124 14 168 64 198
33 19 83 22 113 6 63 -34 74 -262 22 -499 -7 -33 32 -71 73 -72 74 -2 253 180
253 258 0 24 -8 39 -31 58 -17 14 -37 26 -44 26 -15 0 -20 35 -30 198 -9 142
-46 222 -122 261 -39 20 -124 13 -181 -15z"/>
<path d="M5315 3241 c-63 -36 -165 -142 -165 -171 0 -40 18 -57 64 -64 32 -5
47 -13 51 -27 4 -10 7 -85 8 -165 l2 -146 -29 -21 c-80 -58 -92 -88 -52 -134
l24 -28 119 2 c156 3 207 11 232 34 32 30 26 59 -25 114 -25 28 -52 59 -59 70
-9 13 -17 90 -25 215 -14 238 -29 319 -64 342 -18 12 -28 9 -81 -21z"/>
<path d="M3640 3144 c-91 -33 -168 -112 -207 -213 -28 -72 -24 -247 6 -325 33
-83 116 -166 196 -196 136 -50 322 -5 400 97 68 89 94 210 75 343 -19 133 -74
222 -172 275 -47 26 -64 30 -153 32 -73 2 -112 -1 -145 -13z m196 -183 c46
-28 84 -111 84 -180 -1 -130 -55 -201 -152 -201 -101 0 -148 58 -156 191 -5
93 18 157 70 189 43 26 113 26 154 1z"/>
<path d="M1484 2879 c-49 -52 -79 -62 -178 -60 -48 1 -92 4 -97 7 -5 3 -43 0
-86 -6 -171 -23 -258 -134 -224 -285 14 -61 67 -130 118 -151 76 -32 169 -8
198 51 19 42 12 78 -20 95 -20 10 -33 10 -70 0 -43 -12 -48 -12 -68 8 -24 25
-28 78 -8 116 20 37 72 58 134 54 l52 -3 13 -235 c14 -246 12 -275 -27 -380
l-20 -55 21 -22 c35 -38 63 -29 135 40 112 107 137 176 73 198 l-28 10 -7 152
c-4 84 -8 181 -9 216 l-1 63 60 3 c117 5 173 53 162 139 -10 76 -72 99 -123
45z"/>
<path d="M1557 2669 c-26 -17 -54 -41 -62 -52 -28 -39 -13 -87 26 -87 15 0 18
-16 23 -122 15 -271 14 -277 -16 -300 -29 -21 -37 -55 -16 -76 15 -15 148 -16
200 -2 53 15 55 35 8 86 -37 40 -40 48 -40 99 0 74 21 122 56 131 38 10 57 -6
71 -57 16 -62 16 -130 -2 -172 -21 -51 -19 -84 6 -98 47 -25 127 25 175 109
21 36 14 60 -24 77 -19 9 -22 18 -22 75 -1 84 -16 149 -42 177 -41 44 -134 42
-187 -2 l-29 -25 -6 97 c-9 143 -16 167 -46 171 -15 2 -44 -9 -73 -29z"/>
<path d="M2145 2477 c-131 -74 -138 -289 -12 -391 34 -27 47 -31 110 -34 60
-3 80 1 116 20 61 31 88 69 75 105 -12 37 -49 41 -105 13 -55 -28 -104 -30
-129 -4 -39 40 -31 45 65 48 140 3 190 44 165 136 -12 46 -51 95 -91 115 -44
23 -146 19 -194 -8z"/>
<path d="M3004 2197 c-12 -6 -33 -20 -47 -30 -23 -16 -34 -17 -89 -9 -261 41
-488 -183 -413 -408 34 -102 133 -170 375 -255 204 -73 270 -114 315 -196 24
-45 30 -68 33 -142 6 -109 -11 -159 -75 -222 -62 -61 -133 -87 -239 -86 -184
0 -303 97 -292 237 6 74 37 106 126 129 124 32 168 82 141 158 -11 32 -24 46
-59 65 -39 20 -56 23 -130 20 -68 -2 -96 -8 -140 -30 -123 -60 -191 -165 -198
-303 -12 -231 123 -401 372 -467 87 -23 257 -24 341 -3 297 76 453 322 391
617 -45 209 -164 311 -488 417 -127 42 -209 86 -229 123 -16 30 -3 81 29 111
76 72 180 62 281 -28 87 -77 125 -98 166 -91 39 8 75 47 75 82 0 39 -48 177
-78 224 -55 87 -115 118 -168 87z"/>
<path d="M6964 2050 c-12 -4 -30 -20 -41 -34 -18 -23 -24 -24 -54 -16 -85 25
-190 6 -245 -42 -56 -50 -77 -100 -72 -178 6 -110 45 -144 239 -204 133 -42
169 -64 169 -106 0 -38 -24 -60 -66 -60 -38 0 -83 20 -171 77 -34 21 -74 38
-99 41 -36 4 -46 0 -69 -22 -24 -24 -27 -33 -21 -69 14 -87 83 -196 141 -224
38 -18 74 -9 115 29 19 18 26 19 65 9 100 -25 189 -1 257 69 67 69 86 157 53
238 -32 74 -75 103 -239 158 -55 19 -110 41 -123 49 -43 29 -18 95 37 95 13 0
60 -24 103 -52 89 -59 138 -68 176 -34 43 39 9 170 -64 244 -43 43 -54 47 -91
32z"/>
<path d="M6069 1966 c-65 -17 -132 -59 -168 -105 -156 -197 -101 -509 111
-627 50 -27 60 -29 163 -29 104 0 114 2 177 33 80 39 118 83 125 146 5 38 2
48 -20 70 -35 35 -68 33 -145 -10 -128 -72 -253 -50 -277 48 l-7 26 164 4
c145 3 168 6 205 25 63 34 83 65 83 133 0 85 -25 147 -85 207 -81 80 -207 111
-326 79z m165 -176 c31 -11 49 -44 41 -71 -10 -31 -68 -50 -173 -56 l-95 -6 7
33 c16 83 129 135 220 100z"/>
<path d="M5369 1927 c-26 -7 -70 -30 -100 -52 -38 -27 -54 -34 -57 -25 -3 8
-15 24 -28 37 -45 45 -119 23 -216 -66 -65 -59 -83 -95 -69 -134 12 -32 55
-61 80 -54 16 4 19 -5 25 -92 3 -53 9 -193 12 -311 7 -207 6 -217 -15 -257
-29 -58 -27 -86 11 -123 37 -37 69 -36 129 6 59 40 177 168 185 199 11 44 -6
78 -52 100 l-41 20 -6 125 c-16 293 -8 346 57 394 63 47 137 43 188 -10 58
-59 73 -145 39 -220 -28 -61 -60 -81 -141 -89 -59 -6 -73 -11 -90 -32 -40 -51
-14 -135 52 -166 117 -56 256 -13 329 101 52 81 72 168 67 285 -3 72 -11 118
-26 157 -62 157 -201 243 -333 207z"/>
<path d="M4421 1880 c-154 -33 -257 -162 -268 -335 -12 -185 53 -325 182 -393
46 -25 59 -27 170 -27 110 0 124 2 170 27 134 71 203 232 176 415 -21 147
-101 261 -209 297 -59 20 -164 28 -221 16z m132 -184 c79 -32 120 -136 99
-248 -18 -95 -54 -135 -132 -145 -102 -14 -172 70 -174 210 -1 59 3 80 24 117
40 71 110 97 183 66z"/>
<path d="M3764 1850 c-124 -26 -222 -114 -264 -235 -28 -81 -27 -214 1 -298
38 -112 122 -199 223 -230 67 -20 193 -14 250 11 138 62 192 158 130 231 -14
17 -35 31 -48 31 -12 0 -60 -16 -106 -35 -93 -38 -136 -43 -183 -20 -55 26
-80 75 -85 165 -4 67 -1 85 18 125 24 49 61 75 107 75 16 0 64 -18 108 -40 44
-22 88 -40 98 -40 29 0 87 63 87 94 0 112 -178 200 -336 166z"/>
</g>
</svg>
