<?xml version="1.0" standalone="no"?>
<!DOCTYPE svg PUBLIC "-//W3C//DTD SVG 20010904//EN"
 "http://www.w3.org/TR/2001/REC-SVG-20010904/DTD/svg10.dtd">
<svg version="1.0" xmlns="http://www.w3.org/2000/svg"
 width="512.000000pt" height="512.000000pt" viewBox="0 0 512.000000 512.000000"
 preserveAspectRatio="xMidYMid meet">
<metadata>
Created by potrace 1.16, written by Peter Selinger 2001-2019
</metadata>
<g transform="translate(0.000000,512.000000) scale(0.100000,-0.100000)"
fill="#000000" stroke="none">
<path d="M2226 5104 c-679 -87 -1308 -456 -1721 -1009 -273 -366 -446 -801
-494 -1247 -14 -125 -14 -451 0 -576 118 -1090 949 -2004 2021 -2223 252 -51
596 -65 848 -34 1159 143 2082 1066 2225 2225 20 163 20 478 0 640 -96 774
-540 1461 -1211 1872 -301 185 -656 309 -1014 353 -155 19 -502 18 -654 -1z
m504 -158 c449 -20 943 -215 1330 -524 484 -388 809 -978 880 -1597 15 -135
12 -426 -5 -562 -35 -267 -113 -522 -230 -758 -366 -738 -1066 -1229 -1890
-1326 -109 -13 -399 -12 -515 1 -536 60 -1048 308 -1430 690 -381 380 -629
893 -690 1425 -13 116 -13 414 0 530 30 262 115 549 235 790 350 708 1007
1187 1800 1315 74 12 320 28 370 23 17 -1 82 -4 145 -7z"/>
<path d="M1475 3580 c-95 -25 -138 -44 -217 -96 -127 -85 -223 -213 -277 -372
l-25 -77 -4 -430 c-3 -298 0 -453 8 -505 43 -271 239 -490 510 -567 61 -17
126 -18 1095 -18 l1030 0 80 27 c212 73 368 222 448 430 l32 83 3 470 c3 531
1 555 -68 693 -72 141 -175 244 -315 312 -149 73 -94 70 -1220 69 -953 0
-1014 -1 -1080 -19z m2126 -166 c186 -55 319 -190 374 -376 14 -49 16 -114 13
-505 -3 -438 -4 -449 -25 -503 -69 -169 -221 -299 -390 -335 -56 -12 -232 -15
-1019 -15 -915 0 -954 1 -1028 20 -177 45 -307 161 -374 336 l-27 69 -3 409
c-2 281 0 431 8 479 33 190 189 365 373 418 57 16 136 18 1053 18 883 1 996
-1 1045 -15z"/>
<path d="M1779 3181 l-24 -19 -3 -597 -2 -596 29 -30 c16 -16 39 -29 51 -29
29 0 76 26 84 45 3 9 6 129 6 266 l0 249 48 0 48 0 109 -261 c119 -285 132
-305 195 -295 43 7 70 38 70 80 0 17 -45 136 -99 265 l-99 235 38 19 c50 24
116 96 143 155 19 40 22 65 22 172 0 113 -2 130 -25 175 -31 64 -92 124 -155
156 -47 22 -63 24 -231 27 -167 3 -182 2 -205 -17z m371 -173 c61 -42 75 -71
78 -161 2 -70 -1 -88 -20 -121 -36 -62 -92 -86 -200 -86 l-88 0 0 195 0 195
99 0 c85 0 102 -3 131 -22z"/>
<path d="M2672 3193 c-7 -3 -19 -18 -27 -33 -21 -41 -22 -812 -1 -911 30 -140
114 -256 224 -307 81 -38 184 -38 264 1 65 32 145 113 178 182 48 99 50 123
50 591 l0 441 -23 21 c-23 22 -68 29 -102 16 -43 -17 -45 -41 -45 -483 0 -394
-1 -424 -20 -473 -27 -73 -71 -123 -125 -144 -63 -24 -110 -9 -164 52 -75 86
-75 85 -79 574 -3 427 -3 435 -24 457 -21 22 -72 30 -106 16z"/>
</g>
</svg>
